<svg width="800" height="480" viewBox="0 0 800 480" fill="none" xmlns="http://www.w3.org/2000/svg">
  <defs>
    <linearGradient id="bg" x1="0" y1="0" x2="800" y2="480">
      <stop stop-color="#0B1220"/>
      <stop offset="0.55" stop-color="#0C4A6E"/>
      <stop offset="1" stop-color="#1E3A8A"/>
    </linearGradient>
  </defs>
  <rect width="800" height="480" rx="28" fill="url(#bg)"/>
  <rect x="64" y="74" width="672" height="332" rx="22" fill="#081321" stroke="#3B82F6" stroke-opacity="0.25"/>
  <rect x="96" y="108" width="160" height="214" rx="18" fill="url(#bg)" stroke="#38BDF8"/>
  <text x="120" y="154" fill="#BAE6FD" font-family="Arial, sans-serif" font-size="14" font-weight="700">WORLD CLASS</text>
  <text x="120" y="186" fill="#FFFFFF" font-family="Arial, sans-serif" font-size="28" font-weight="800">Book 1</text>
  <rect x="120" y="206" width="110" height="8" rx="4" fill="#7DD3FC"/>
  <rect x="120" y="228" width="88" height="8" rx="4" fill="#38BDF8" fill-opacity="0.8"/>
  <rect x="286" y="108" width="160" height="214" rx="18" fill="#10233D" stroke="#60A5FA"/>
  <text x="310" y="154" fill="#CFFAFE" font-family="Arial, sans-serif" font-size="14" font-weight="700">WORLD CLASS</text>
  <text x="310" y="186" fill="#FFFFFF" font-family="Arial, sans-serif" font-size="28" font-weight="800">Book 2B</text>
  <rect x="310" y="206" width="118" height="8" rx="4" fill="#7DD3FC"/>
  <rect x="310" y="228" width="92" height="8" rx="4" fill="#38BDF8" fill-opacity="0.8"/>
  <rect x="478" y="108" width="220" height="214" rx="18" fill="#0F172A" stroke="#334155"/>
  <text x="502" y="142" fill="#FFFFFF" font-family="Arial, sans-serif" font-size="20" font-weight="700">Teacher Resources</text>
  <rect x="502" y="162" width="122" height="10" rx="5" fill="#38BDF8"/>
  <rect x="502" y="194" width="170" height="12" rx="6" fill="#1E293B"/>
  <rect x="502" y="218" width="148" height="12" rx="6" fill="#1E293B"/>
  <rect x="502" y="246" width="90" height="30" rx="10" fill="#0EA5E9"/>
  <text x="524" y="266" fill="#082F49" font-family="Arial, sans-serif" font-size="13" font-weight="800">Open</text>
</svg>