<svg width="1200" height="720" viewBox="0 0 1200 720" fill="none" xmlns="http://www.w3.org/2000/svg">
  <defs>
    <linearGradient id="bg" x1="0" y1="0" x2="1200" y2="720">
      <stop stop-color="#0B1220"/>
      <stop offset="0.5" stop-color="#111827"/>
      <stop offset="1" stop-color="#0F766E"/>
    </linearGradient>
    <linearGradient id="panel" x1="0" y1="0" x2="1" y2="1">
      <stop stop-color="#1D4ED8" stop-opacity="0.9"/>
      <stop offset="1" stop-color="#06B6D4" stop-opacity="0.7"/>
    </linearGradient>
  </defs>
  <rect width="1200" height="720" rx="32" fill="url(#bg)"/>
  <circle cx="1000" cy="90" r="140" fill="#60A5FA" fill-opacity="0.2"/>
  <circle cx="170" cy="620" r="170" fill="#34D399" fill-opacity="0.12"/>
  <rect x="78" y="84" width="1044" height="552" rx="30" fill="#0F172A" stroke="#334155"/>
  <rect x="120" y="126" width="420" height="210" rx="24" fill="url(#panel)"/>
  <rect x="570" y="126" width="504" height="90" rx="18" fill="#111827" stroke="#334155"/>
  <rect x="570" y="246" width="504" height="90" rx="18" fill="#111827" stroke="#334155"/>
  <rect x="120" y="370" width="954" height="210" rx="24" fill="#111827" stroke="#334155"/>
  <text x="154" y="184" fill="white" font-family="Arial, sans-serif" font-size="30" font-weight="700">Modern Learning Hub</text>
  <text x="154" y="224" fill="#DBEAFE" font-family="Arial, sans-serif" font-size="17">One place for lessons, tools, and creative projects</text>
  <text x="602" y="181" fill="#E5E7EB" font-family="Arial, sans-serif" font-size="18" font-weight="700">Fast classroom access</text>
  <text x="602" y="301" fill="#E5E7EB" font-family="Arial, sans-serif" font-size="18" font-weight="700">Consistent student experience</text>
  <rect x="154" y="262" width="190" height="14" rx="7" fill="#DBEAFE" fill-opacity="0.9"/>
  <rect x="154" y="290" width="150" height="14" rx="7" fill="#A5F3FC" fill-opacity="0.9"/>
</svg>